<?xml version="1.0" encoding="utf-8"?>
<!-- Generator: Adobe Illustrator 20.1.0, SVG Export Plug-In . SVG Version: 6.00 Build 0)  -->
<svg version="1.1" id="Layer_1" xmlns="http://www.w3.org/2000/svg" xmlns:xlink="http://www.w3.org/1999/xlink" x="0px" y="0px"
	 viewBox="0 0 1276.8 902.8" style="enable-background:new 0 0 1276.8 902.8;" xml:space="preserve">
<style type="text/css">
	.st0{fill:#055959;}
	.st1{fill:none;stroke:#00A6A6;stroke-miterlimit:10;}
	.st2{fill:#00A6A6;stroke:#075959;stroke-miterlimit:10;}
	.st3{fill:#00A6A6;stroke:#00A6A6;stroke-miterlimit:10;}
</style>
<rect class="st0" width="1276.8" height="902.8"/>
<rect x="1132.3" y="511.5" transform="matrix(0.9479 -0.3186 0.3186 0.9479 -110.3738 396.2787)" class="st1" width="48.1" height="48.1"/>
<polyline class="st1" points="1129.9,542.3 1161.2,561.5 1188.1,497.3 "/>
<g>
	<line class="st1" x1="1077.3" y1="714.5" x2="1046.5" y2="670"/>
	<line class="st1" x1="1061.9" y1="659.3" x2="1099.2" y2="713.1"/>
	<path class="st1" d="M1099.2,713.1c4.2,6.1,2.7,14.5-3.4,18.7c-6.1,4.2-14.5,2.7-18.7-3.4l-35-50.5"/>
	<path class="st1" d="M1047,670.7c-3-4.3-1.9-10.1,2.4-13.1c4.3-3,10.1-1.9,13.1,2.4"/>
</g>
<path class="st1" d="M151.7,566.1l-16.2,53.3l60.6,18.4l16.2-53.3L151.7,566.1z M155.9,613.3c-3.4-1-6-3-7.2-4.4l2.1-2.8
	c0.9,1.1,3.3,3.1,6.1,3.9c5.2,1.6,7.9-1.3,8.6-3.8c1.2-4.2-2-7.2-6-8.4l-2.3-0.7l0.9-3.1l2.3,0.7c3,0.9,7.2,0.5,8.3-3.1
	c0.7-2.4-0.2-5-3.9-6.2c-2.4-0.7-5.1-0.4-6.6,0.2l-0.2-3.3c1.9-0.7,5.3-0.9,8.6,0.1c5.9,1.8,7.6,6.2,6.5,9.8
	c-0.9,3.1-3.6,5.2-7.7,5.4l0,0.1c3.5,1.9,5.7,5.6,4.4,9.8C168.2,612.4,163.2,615.5,155.9,613.3z M185,621.5l-3.9-1.2l8-26.4l-0.1,0
	l-6.1,1.2l0.2-3.4l7.7-1.5l3.5,1.1L185,621.5z"/>
<rect x="153.2" y="559.6" transform="matrix(0.9569 0.2904 -0.2904 0.9569 172.2749 -29.2993)" class="st1" width="63.3" height="12.3"/>
<rect x="166.7" y="548" transform="matrix(0.9569 0.2904 -0.2904 0.9569 168.4488 -25.7481)" class="st2" width="8.6" height="13.2"/>
<rect x="198" y="558" transform="matrix(0.9569 0.2904 -0.2904 0.9569 172.6943 -34.4209)" class="st2" width="8.6" height="13.2"/>
<path class="st1" d="M250.2,757.3l21.5,8.4c0,0,3.8-14.7-4.7-20l11.3-30.1l7.3-2.2l-15.9-6.2"/>
<line class="st1" x1="250.2" y1="757.3" x2="240.3" y2="782.9"/>
<path class="st1" d="M269.8,707.2l-15.9-6.2l3.9,6.6l-12.1,29.8c-9.8-1.9-17,11.5-17,11.5l21.5,8.4"/>
<g>
	<polygon class="st1" points="1143.1,205.4 1163.5,214.6 1130.5,287.5 1110.3,305 1110.1,278.3 	"/>
	
		<rect x="1145.8" y="196.4" transform="matrix(0.9112 0.412 -0.412 0.9112 185.8759 -458.7534)" class="st3" width="22.3" height="10.7"/>
	<line class="st1" x1="1144.6" y1="202" x2="1143.1" y2="205.4"/>
	<line class="st1" x1="1165" y1="211.2" x2="1163.5" y2="214.6"/>
	<polyline class="st1" points="1110.1,278.3 1116.5,278.4 1120.3,282.9 1127,283.2 1130.5,287.5 	"/>
	<line class="st1" x1="1116.5" y1="278.4" x2="1148.5" y2="207.8"/>
	<line class="st1" x1="1127" y1="283.2" x2="1158.2" y2="212.2"/>
	<line class="st1" x1="1110.2" y1="296.6" x2="1116.7" y2="299.5"/>
</g>
<circle class="st1" cx="1023.1" cy="399.4" r="32.1"/>
<polyline class="st1" points="1023.1,376.9 1023.1,399.4 1030.8,407.5 "/>
<g>
	
		<rect x="166.3" y="361.5" transform="matrix(0.9713 -0.2379 0.2379 0.9713 -89.4538 57.6667)" class="st1" width="55.7" height="75.9"/>
	<line class="st1" x1="177.5" y1="386" x2="209.2" y2="378.2"/>
	<line class="st1" x1="179.9" y1="395.5" x2="211.5" y2="387.7"/>
	<line class="st1" x1="182.2" y1="405" x2="213.9" y2="397.2"/>
	<line class="st1" x1="184.5" y1="414.5" x2="216.2" y2="406.7"/>
</g>
<polygon class="st1" points="243.2,213.5 112.1,234 107.6,204.5 101.1,163.3 232.2,142.9 "/>
<polyline class="st1" points="107.6,204.5 120.5,175.1 140.7,199.4 153.9,164.4 180.4,200.8 189.8,179.1 203.2,183.6 215.4,168 
	234.6,157.9 "/>
<circle class="st3" cx="120.5" cy="175.1" r="3"/>
<circle class="st3" cx="215.4" cy="168.1" r="3"/>
<circle class="st3" cx="203.1" cy="183.3" r="3"/>
<circle class="st3" cx="189.8" cy="179.1" r="3"/>
<circle class="st3" cx="180.7" cy="200.4" r="3"/>
<circle class="st3" cx="153.8" cy="165" r="3"/>
</svg>
