<?xml version="1.0" encoding="utf-8"?>
<!-- Generator: Adobe Illustrator 20.1.0, SVG Export Plug-In . SVG Version: 6.00 Build 0)  -->
<svg version="1.1" id="Layer_1" xmlns="http://www.w3.org/2000/svg" xmlns:xlink="http://www.w3.org/1999/xlink" x="0px" y="0px"
	 viewBox="0 0 139.3 139.3" style="enable-background:new 0 0 139.3 139.3;" xml:space="preserve">
<style type="text/css">
	.st0{fill:#F2A88C;}
	.st1{fill:none;stroke:#FFFFFF;stroke-width:1.5;stroke-miterlimit:10;}
	.st2{fill:#FFFFFF;}
</style>
<rect class="st0" width="139.3" height="139.3"/>
<rect x="45.4" y="57.4" transform="matrix(0.9999 -1.202628e-02 1.202628e-02 0.9999 -0.8342 0.6982)" class="st1" width="24.6" height="24.6"/>
<polyline class="st1" points="43.7,68.8 56,83.1 79.1,56.1 "/>
<path class="st2" d="M16.5,55.8h11c2.9,0,5.4,1.3,7.5,4c2.1,2.6,3.1,5.8,3.1,9.5c0,3.9-1,7.3-3.1,10.1c-2.1,2.8-4.6,4.2-7.5,4.2h-11
	V55.8z M27.5,81.7c2.4,0,4.5-1.2,6.2-3.6c1.7-2.4,2.6-5.4,2.6-8.8c0-3.2-0.9-6-2.6-8.3c-1.7-2.3-3.8-3.4-6.2-3.4h-9.1v24.1H27.5z"/>
<path class="st2" d="M81.4,83.5V55.8H84l16.7,25.4V55.8h1.9v27.7H100L83.3,58.5v25.1H81.4z"/>
<path class="st2" d="M108.6,83.5V55.8h18.1v1.8h-16.2v10.7h14.8V70h-14.8v11.7h16.2v1.8H108.6z"/>
</svg>
