<?xml version="1.0" encoding="utf-8"?>
<!-- Generator: Adobe Illustrator 20.1.0, SVG Export Plug-In . SVG Version: 6.00 Build 0)  -->
<svg version="1.1" id="Layer_1" xmlns="http://www.w3.org/2000/svg" xmlns:xlink="http://www.w3.org/1999/xlink" x="0px" y="0px"
	 viewBox="0 0 500 135.9" style="enable-background:new 0 0 500 135.9;" xml:space="preserve">
<style type="text/css">
	.st0{fill:#F27687;stroke:#F27687;stroke-width:2;stroke-miterlimit:10;}
	.st1{fill:none;stroke:#AC3B4B;stroke-width:3;stroke-miterlimit:10;}
</style>
<g>
	<path class="st0" d="M132.3,20h18.5c9.1,0,16.8,1.4,23.2,4.2c6.3,2.8,11.5,6.4,15.4,10.8c4,4.4,6.8,9.2,8.6,14.6
		c1.8,5.3,2.6,10.5,2.6,15.6c0,6.9-1.2,13.1-3.6,18.7c-2.4,5.6-5.7,10.3-9.8,14.3c-4.1,3.9-8.9,6.9-14.5,9
		c-5.5,2.1-11.4,3.2-17.5,3.2h-22.8V20z M155.9,108.5c5.8,0,11.2-1,16.5-3c5.2-2,9.8-4.9,13.7-8.6c4-3.7,7.1-8.3,9.4-13.7
		c2.3-5.4,3.4-11.4,3.4-18c0-4.9-0.8-9.9-2.5-15c-1.7-5.1-4.4-9.7-8.1-13.9c-3.7-4.2-8.6-7.7-14.6-10.3c-6-2.7-13.2-4-21.7-4h-17.8
		v86.6H155.9z"/>
	<path class="st0" d="M216.6,65.3c0-6.4,1.2-12.4,3.6-18c2.4-5.6,5.7-10.5,9.9-14.7c4.2-4.2,9.1-7.5,14.6-9.9
		c5.6-2.5,11.6-3.7,17.9-3.7c6.4,0,12.4,1.2,18,3.7c5.6,2.5,10.5,5.8,14.7,9.9c4.2,4.2,7.5,9.1,9.9,14.7c2.5,5.6,3.7,11.6,3.7,18
		c0,6.4-1.2,12.3-3.7,17.9c-2.5,5.6-5.8,10.5-9.9,14.6c-4.2,4.2-9.1,7.5-14.7,9.9c-5.6,2.4-11.6,3.6-18,3.6
		c-6.4,0-12.3-1.2-17.9-3.6c-5.6-2.4-10.5-5.7-14.6-9.9c-4.2-4.2-7.5-9.1-9.9-14.6C217.8,77.6,216.6,71.6,216.6,65.3z M218.4,65.4
		c0,6.1,1.2,11.8,3.5,17.2c2.3,5.3,5.5,10,9.4,14c4,4,8.6,7.2,13.9,9.5c5.3,2.3,11,3.5,17,3.5c6.1,0,11.9-1.2,17.4-3.5
		c5.5-2.3,10.2-5.5,14.3-9.5c4.1-4,7.3-8.7,9.7-14.1c2.4-5.4,3.5-11.1,3.5-17.2c0-6.1-1.2-11.8-3.5-17.2c-2.4-5.4-5.6-10.1-9.6-14.1
		c-4-4-8.8-7.2-14.1-9.6c-5.4-2.4-11.1-3.5-17.2-3.5c-6.1,0-11.9,1.2-17.2,3.5c-5.4,2.4-10.1,5.6-14.1,9.6c-4,4-7.2,8.8-9.5,14.2
		S218.4,59.3,218.4,65.4z"/>
	<path class="st0" d="M405.9,20v94.5c-12.3-15.4-24.2-30.6-35.7-45.6c-11.5-15-22.9-30-34.1-45c-0.4-0.6-0.8-1.2-1.2-1.7
		c-0.4-0.5-0.8-1.1-1.2-1.7c0.1,0.7,0.1,1.4,0.2,2.1c0,0.7,0.1,1.4,0.2,2.1v85.7h-1.8V15.9c6.2,7.8,12.2,15.5,18.1,23.2
		c5.8,7.6,11.6,15.2,17.3,22.7c5.7,7.5,11.4,15,17,22.5c5.7,7.4,11.5,14.9,17.4,22.5c0.4,0.6,0.8,1.2,1.2,1.7s0.8,1.1,1.2,1.7
		c-0.1-0.7-0.2-1.4-0.2-2.1c0-0.7-0.1-1.4-0.2-2.1V20H405.9z"/>
	<path class="st0" d="M436.6,110.3V20h53.5v1.8h-51.7v42.1h46.7v1.8h-46.7v42.8h53.5v1.8H436.6z"/>
</g>
<rect x="11.7" y="32.2" class="st1" width="70" height="70"/>
<polyline class="st1" points="3.5,59 46.7,105.6 101.7,5.9 "/>
</svg>
